<svg version="1.1" id="Layer_1" xmlns="http://www.w3.org/2000/svg" xmlns:xlink="http://www.w3.org/1999/xlink" x="0px" y="0px"
	 width="100%" viewBox="0 0 496 496" enable-background="new 0 0 496 496" xml:space="preserve">
<path fill="#000000" opacity="1.000000" stroke="none" 
	d="
M118.734779,273.900421 
	C116.273323,263.914612 117.313942,254.695496 121.573250,245.831223 
	C122.888008,243.095016 122.714767,240.524597 121.755150,237.649338 
	C118.547043,228.036972 117.425804,217.901993 122.938675,209.187622 
	C126.742279,203.175156 126.667664,197.509689 126.785721,191.133682 
	C126.968285,181.273300 130.892136,172.682999 138.139008,165.863831 
	C139.958298,164.151917 141.086227,162.243027 141.531509,159.933884 
	C142.788864,153.413300 146.272934,148.325531 151.318893,144.188232 
	C152.491425,143.226837 153.250793,142.124191 153.815460,140.616150 
	C157.679001,130.298050 164.914886,123.398727 175.493896,120.210457 
	C178.666489,119.254311 180.968430,117.724670 182.762680,114.751190 
	C187.709961,106.552467 195.243530,102.060791 204.690018,100.699417 
	C205.655991,100.560204 206.714523,100.432152 207.527359,99.954155 
	C226.323120,88.900887 239.964859,90.298790 255.660202,104.930496 
	C256.127594,105.366219 256.694427,105.695305 257.611694,106.362923 
	C264.948975,96.166725 275.234985,92.707932 287.234589,92.906021 
	C291.207642,92.971611 295.073547,93.816238 298.251038,95.693054 
	C304.043549,99.114525 310.382294,100.616615 316.610779,102.694130 
	C323.283752,104.919899 328.387421,109.509804 332.133087,115.436913 
	C333.749054,117.994041 335.714813,119.347176 338.707733,120.164047 
	C349.172699,123.020309 356.382629,129.747284 360.219696,139.907455 
	C360.847290,141.569305 361.803375,142.753479 363.022003,143.907593 
	C368.327209,148.931976 372.387451,154.713394 373.834167,162.044250 
	C374.096802,163.375061 374.594177,164.522705 375.634155,165.507263 
	C384.119141,173.539658 387.889526,183.477921 387.332153,195.082916 
	C387.127899,199.336273 388.094299,202.958359 390.384369,206.792709 
	C396.433228,216.920410 397.352203,227.806122 392.491333,238.781815 
	C391.357330,241.342346 391.508484,243.216309 392.799469,245.728226 
	C399.419861,258.609772 397.923889,271.418121 391.486481,283.861359 
	C390.174652,286.397156 389.667877,288.454865 390.442749,291.282654 
	C393.607910,302.832977 388.286407,322.662994 376.123047,329.599823 
	C373.277649,331.222565 372.301208,333.568329 371.896881,336.897217 
	C369.477112,356.819550 360.363159,371.764343 340.019073,377.739410 
	C337.373779,378.516327 336.375885,380.399353 335.351440,382.501373 
	C325.661743,402.383545 293.672729,413.148712 273.840424,405.276917 
	C269.430573,403.526581 265.823456,400.607086 262.473236,397.320465 
	C260.839813,395.718018 259.659576,393.590668 256.201294,392.289185 
	C255.846817,392.911133 255.425995,394.076141 254.659470,394.931122 
	C240.949738,410.222351 221.970840,410.159790 204.988480,404.009918 
	C193.166016,399.728577 183.681793,392.419159 178.118073,380.760315 
	C177.240204,378.920746 175.677216,378.225250 173.888245,377.585480 
	C155.969208,371.176849 145.517456,358.527374 142.692581,339.720581 
	C141.974930,334.942841 140.522079,331.353149 136.007202,328.428192 
	C125.278915,321.477936 119.570663,305.750885 122.588890,293.218323 
	C123.653984,288.795746 123.662788,284.842834 121.181114,280.848877 
	C119.981705,278.918579 119.553589,276.509094 118.734779,273.900421 
M172.637436,363.357697 
	C177.392960,362.429504 176.535950,357.656097 178.384689,354.761475 
	C180.522522,351.414124 182.667007,348.431305 187.068024,350.133301 
	C191.146591,351.710602 191.854401,354.739349 190.764496,359.077667 
	C187.417236,372.401184 193.176620,383.807617 205.758911,389.595367 
	C212.671967,392.775360 219.963501,393.972046 227.583847,393.724792 
	C237.511505,393.402710 245.516785,386.370270 248.872696,377.007599 
	C251.489197,369.707764 250.205368,362.337494 251.481827,355.089630 
	C252.099686,351.581299 249.837479,349.525848 246.193802,349.333984 
	C242.372559,349.132690 238.515137,349.207245 234.737793,348.691071 
	C230.330826,348.088837 227.133347,343.936005 227.849533,340.378540 
	C228.631638,336.493622 232.595428,334.096436 237.158508,334.873871 
	C239.938629,335.347534 242.668030,336.134949 245.454712,336.549408 
	C248.303741,336.973083 250.556870,336.071442 250.627594,332.746948 
	C250.799271,324.676117 251.250168,316.580902 250.832108,308.534821 
	C250.162720,295.651825 250.594833,282.741150 250.286255,269.867157 
	C250.031830,259.252747 249.351318,248.266403 251.560959,237.574860 
	C251.879272,236.034637 251.729523,234.088013 251.039276,232.708176 
	C249.114059,228.859482 249.571457,224.904449 250.106262,220.991486 
	C250.832794,215.675659 250.932632,210.426651 250.049286,205.126663 
	C249.723846,203.174088 249.506836,201.093201 249.818985,199.164474 
	C250.933899,192.275116 250.027405,185.418365 250.055695,178.551697 
	C250.083267,171.853073 246.841263,169.249374 241.475235,166.910065 
	C235.772095,164.423798 229.379211,162.847137 225.311356,157.483429 
	C222.744019,154.098267 223.065033,149.701553 225.997711,147.175781 
	C228.961151,144.623489 232.034668,145.178238 235.371109,148.935425 
	C238.294418,152.227356 241.601486,154.701309 246.028107,155.874603 
	C249.891205,156.898544 250.624649,155.430481 250.805618,152.041382 
	C251.292175,142.928802 250.160675,133.906982 249.509262,124.865013 
	C249.247406,121.230591 248.052170,117.721542 245.992615,114.570152 
	C240.291458,105.846672 224.782211,103.160225 217.810959,110.216103 
	C214.821289,113.242088 211.984009,114.699455 207.869080,114.319969 
	C206.450638,114.189171 204.921677,114.688202 203.511719,115.122124 
	C190.126678,119.241386 185.596756,134.534042 192.301041,147.509064 
	C194.114517,151.018753 192.856262,153.640305 190.320068,155.785370 
	C187.545227,158.132263 185.125275,156.536682 182.849030,154.512604 
	C178.902878,151.003632 177.123581,146.494965 176.670975,141.393127 
	C176.462448,139.042740 176.020004,136.895264 174.248184,135.239334 
	C170.969086,136.281448 169.162109,137.785004 170.115845,141.506226 
	C171.183243,145.671005 170.089386,148.640930 165.447586,150.447235 
	C153.323837,155.165024 148.851517,175.448059 162.995132,183.354156 
	C172.668152,188.761261 175.212662,199.076141 175.205734,209.692337 
	C175.202988,213.890228 171.835495,217.310394 168.629852,217.224640 
	C165.237106,217.133881 161.959732,213.359207 161.777985,209.258667 
	C161.689545,207.262863 161.682587,205.261993 161.691635,203.263657 
	C161.705475,200.212631 160.539780,197.544174 158.126572,195.892593 
	C152.690002,192.171875 146.943863,188.874786 143.979630,182.453903 
	C140.646561,184.770187 141.068832,187.889618 140.461243,190.513870 
	C139.863373,193.096039 141.052170,194.879105 143.888046,194.659622 
	C147.621521,194.370712 150.208878,195.762589 150.888977,199.442291 
	C151.634018,203.473495 148.228195,204.293961 145.481247,205.412262 
	C137.605606,208.618515 133.369354,214.622482 133.385681,223.100525 
	C133.403427,232.321930 138.955444,238.019165 146.219147,242.519699 
	C148.746384,244.085541 150.969788,245.897614 149.618408,249.294235 
	C148.109314,253.087280 145.096222,253.747635 141.396744,252.943497 
	C139.127823,252.450317 137.339996,250.588318 134.915482,250.702606 
	C126.938560,262.221649 132.507965,281.015381 145.169708,286.289001 
	C150.382889,288.460297 155.195068,287.521362 160.225754,286.006073 
	C163.070282,285.149261 166.167496,285.263397 167.644577,288.346222 
	C169.118683,291.422821 168.686523,294.521698 165.817642,296.896027 
	C162.360794,299.756989 158.396576,301.126587 153.915375,301.399506 
	C147.952362,301.762695 142.463104,300.138916 137.459946,297.637329 
	C135.386383,298.949249 135.095840,300.668976 135.440216,302.292236 
	C138.146271,315.047089 144.256470,323.067200 159.627884,316.852936 
	C168.757141,313.162231 174.202652,306.362061 179.054764,298.424042 
	C184.416290,289.652588 191.682343,282.851318 201.978897,280.497803 
	C211.680832,278.280212 220.918427,279.250977 228.089249,287.270020 
	C230.721497,290.213623 231.335159,293.606262 228.558426,296.741852 
	C225.747955,299.915558 222.588715,299.486877 219.224258,297.152344 
	C209.614487,290.484314 199.014389,292.543488 192.515747,302.221436 
	C188.817123,307.729523 185.557449,313.604248 180.940933,318.386383 
	C175.505814,324.016510 169.685410,329.397858 161.367264,330.339050 
	C158.012909,330.718658 157.316498,332.743225 157.289429,335.492767 
	C157.172318,347.381470 161.940414,356.684113 172.637436,363.357697 
M321.706696,149.653839 
	C321.799164,149.164581 321.789307,148.625748 321.998901,148.193237 
	C330.289368,131.084198 321.170563,115.293327 302.313049,114.270943 
	C299.915222,114.140938 298.391235,113.216644 296.879364,111.406364 
	C292.673004,106.369759 286.848389,105.520851 280.988647,106.891403 
	C274.162231,108.488060 268.135925,111.650749 266.315613,119.424309 
	C263.650909,130.804016 264.876678,142.413803 264.265106,153.914581 
	C264.221954,154.726288 264.301178,155.597641 265.439789,156.268906 
	C271.258575,156.037567 275.601562,152.562881 279.685608,148.573242 
	C282.769104,145.561005 286.150879,144.919006 289.309326,148.179489 
	C292.262817,151.228348 292.219299,154.831406 289.615448,158.129623 
	C286.992493,161.452103 283.571136,163.814575 279.604553,165.356567 
	C275.575409,166.922897 271.559509,168.523453 267.527313,170.081909 
	C265.253143,170.960892 263.960571,172.477066 264.204468,175.016556 
	C265.030365,183.616287 264.080292,192.220627 264.131256,200.824509 
	C264.230835,217.652878 266.666840,234.614258 264.436188,251.265640 
	C261.835205,270.681641 266.674194,289.964050 263.879150,309.174072 
	C262.749176,316.940125 266.085663,324.138458 265.311951,331.727753 
	C264.999420,334.793427 266.796204,335.708618 269.615845,335.778687 
	C272.817841,335.858276 275.884277,335.133911 279.014008,334.776062 
	C282.726929,334.351471 286.283142,334.961456 287.174622,339.376251 
	C288.013000,343.527924 286.248535,346.527313 282.090179,347.839386 
	C279.410339,348.684937 276.780182,349.065918 273.828491,348.915771 
	C264.589050,348.445892 262.563995,349.751801 263.850616,359.066071 
	C264.487335,363.675323 265.186859,368.231598 265.366547,372.911560 
	C265.749176,382.877472 272.235840,391.266174 281.672302,393.016663 
	C294.256989,395.351135 306.111420,392.270538 315.767609,384.054169 
	C323.322113,377.626068 328.001160,369.403198 322.336060,358.875885 
	C320.877167,356.164825 321.243958,353.136139 324.544647,351.700653 
	C327.924500,350.230743 331.600494,349.629120 333.853363,353.440948 
	C335.671631,356.517395 336.813416,359.993683 338.294128,363.381439 
	C339.200562,363.218018 339.880676,363.214386 340.461975,362.972931 
	C350.822021,358.669281 358.720093,345.156494 357.414154,334.165894 
	C357.122589,331.712311 355.662079,330.763367 353.487152,330.391937 
	C343.115356,328.620758 335.226532,323.188965 329.017487,314.707825 
	C325.762512,310.261749 323.526794,305.245819 320.184509,300.878418 
	C313.905457,292.673584 304.650024,290.956696 296.162781,296.657135 
	C293.113800,298.704987 289.806000,299.624908 287.233215,296.413727 
	C284.608856,293.138153 284.964996,289.511200 288.209900,286.606201 
	C294.533997,280.944611 301.984863,278.675018 310.354431,280.032440 
	C322.245697,281.960968 329.596313,289.898224 335.205078,299.730652 
	C339.456360,307.183319 343.777252,314.362061 352.704926,317.015472 
	C363.497498,320.223175 372.743042,319.922058 376.289185,306.681458 
	C377.000824,304.024353 377.090240,301.200592 377.472687,298.408997 
	C375.174530,297.573242 373.532471,299.218262 371.632721,299.501587 
	C364.573914,300.554291 357.561584,301.272888 350.727264,298.233276 
	C347.510956,296.802795 346.184235,294.513947 346.782379,291.079559 
	C347.440460,287.300873 350.262482,286.508240 353.449554,286.428680 
	C355.102295,286.387421 356.853333,286.399231 358.404510,286.884308 
	C363.556915,288.495605 367.900208,286.689789 371.993805,283.911713 
	C381.242737,277.634979 383.394379,268.602417 381.955902,258.119507 
	C381.086060,251.780167 380.967377,251.582169 374.866089,253.289001 
	C371.326691,254.279190 367.317688,255.998306 365.231415,251.490021 
	C363.070435,246.820358 366.490540,244.122269 370.005890,241.844864 
	C370.423340,241.574402 370.885284,241.373047 371.324738,241.136078 
	C378.769653,237.121033 382.063721,230.162155 381.318665,222.483963 
	C380.531372,214.370590 377.115021,206.915924 367.065582,205.839523 
	C362.269104,205.325775 362.838104,201.197021 363.202850,198.260956 
	C363.502136,195.851746 365.043945,193.331238 368.725464,194.103653 
	C370.361572,194.446915 372.216248,193.748306 374.179810,193.495850 
	C374.652954,189.692856 375.136017,185.995102 371.710968,182.941315 
	C369.142426,185.639236 367.179474,188.937225 364.280426,190.514343 
	C355.574677,195.250275 351.201935,201.885605 352.226776,211.981506 
	C352.572632,215.388840 350.290680,217.128860 346.939545,217.244797 
	C342.855225,217.386093 340.078247,214.535538 339.707031,209.985153 
	C338.724579,197.942123 343.355774,188.500275 353.212677,181.734848 
	C365.570984,173.252579 360.891968,156.807922 351.437439,151.672394 
	C347.661530,149.621414 345.819763,147.059738 345.484375,142.722794 
	C345.182037,138.812988 343.856964,134.995911 338.710358,134.031677 
	C338.085388,140.959625 337.738953,147.665527 333.462616,153.195862 
	C331.824280,155.314606 330.022827,157.624146 326.919800,156.871811 
	C323.737396,156.100250 321.679657,154.043350 321.706696,149.653839 
z"/>
<path fill="#000000" opacity="1.000000" stroke="none" 
	d="
M199.575592,251.589996 
	C202.429123,248.122849 202.615524,244.288177 202.626801,240.459702 
	C202.670944,225.465805 202.627274,210.471664 202.667145,195.477737 
	C202.684036,189.120773 203.142868,188.655746 209.461639,188.690414 
	C220.730148,188.752228 219.277908,187.472015 219.331268,198.507919 
	C219.406204,214.001648 219.359879,229.496094 219.336060,244.990158 
	C219.319656,255.670120 212.222595,265.593048 201.963852,269.363159 
	C193.026428,272.647736 180.133698,268.989594 173.777390,261.353699 
	C173.352768,260.843567 172.999542,260.273041 172.624237,259.722992 
	C170.135559,256.075745 165.799332,252.399673 168.309265,247.802917 
	C170.640182,243.534027 176.377838,244.996414 180.560593,243.788712 
	C183.324036,242.990799 184.102203,245.289474 185.091187,247.299530 
	C188.319199,253.860321 192.932068,255.287949 199.575592,251.589996 
z"/>
<path fill="#000000" opacity="1.000000" stroke="none" 
	d="
M203.937897,357.911316 
	C192.676819,340.273132 198.889343,318.125702 219.366760,310.665344 
	C222.301132,309.596252 225.250610,309.563599 228.224808,309.828156 
	C231.588806,310.127380 234.003952,311.978302 234.136032,315.461243 
	C234.258209,318.682068 232.638962,321.288116 229.360123,322.276031 
	C226.986359,322.991211 224.425064,323.112366 222.084030,323.903015 
	C212.096848,327.276031 210.108688,336.104614 212.896347,345.583069 
	C214.897522,352.387360 219.719696,357.270325 227.166718,358.830292 
	C228.942078,359.202209 230.600922,360.107300 232.368347,360.545166 
	C235.698532,361.370178 237.157120,363.530426 236.596832,366.753662 
	C236.047607,369.913177 234.484024,372.256622 230.703995,372.378510 
	C219.099640,372.752686 210.866013,366.914093 203.937897,357.911316 
z"/>
<path fill="#000000" opacity="1.000000" stroke="none" 
	d="
M214.199280,140.271622 
	C208.431702,149.111053 209.009064,156.636353 215.795578,164.076935 
	C219.871826,168.546051 219.883011,172.226257 215.913452,175.021622 
	C213.553619,176.683426 211.306305,176.679398 209.048401,174.922607 
	C196.093323,164.842743 194.794693,146.945297 203.154709,134.298462 
	C208.292419,126.526253 215.823746,122.295647 224.929367,120.832855 
	C230.667496,119.911049 235.002975,122.167908 235.501480,126.200249 
	C235.978027,130.055099 234.655457,132.737366 230.508743,133.374023 
	C224.605713,134.280334 218.576736,134.850769 214.199280,140.271622 
z"/>
<path fill="#000000" opacity="1.000000" stroke="none" 
	d="
M232.756256,255.450134 
	C238.825546,256.506744 240.692062,258.611877 240.284164,263.580414 
	C239.909775,268.140656 237.155212,270.425659 232.149353,270.328522 
	C227.762939,270.243408 224.050385,267.081512 223.882935,263.288208 
	C223.702393,259.197876 226.994553,256.131592 232.756256,255.450134 
z"/>
<path fill="#000000" opacity="1.000000" stroke="none" 
	d="
M183.262543,175.368759 
	C179.420380,178.647644 176.465958,177.148285 174.035614,174.137451 
	C171.682220,171.221970 172.527420,166.298157 175.688141,163.917953 
	C178.565216,161.751358 181.494827,162.554565 183.867538,164.727173 
	C186.838333,167.447433 187.446518,170.622757 184.422760,173.869308 
	C184.084885,174.232101 183.819962,174.662827 183.262543,175.368759 
z"/>
<path fill="#000000" opacity="1.000000" stroke="none" 
	d="
M185.159210,336.412781 
	C185.263123,340.393341 185.146378,344.059143 180.790207,345.082306 
	C177.491852,345.857025 174.104248,345.106964 173.065247,341.539429 
	C172.062042,338.094818 171.738342,334.192871 175.981445,332.091034 
	C179.560974,330.317932 182.744064,331.714264 185.159210,336.412781 
z"/>
<path fill="#000000" opacity="1.000000" stroke="none" 
	d="
M156.678177,270.889893 
	C153.484940,272.735565 150.685654,273.165161 148.256149,270.416595 
	C146.058517,267.930328 146.512482,265.206055 147.889984,262.529114 
	C149.235504,259.914337 151.572510,259.308777 154.233398,259.783112 
	C158.991165,260.631226 160.357483,266.071991 156.678177,270.889893 
z"/>
<path fill="#000000" opacity="1.000000" stroke="none" 
	d="
M159.256744,226.034271 
	C158.145218,231.310440 155.380707,233.843033 152.296051,232.640091 
	C149.521118,231.557953 147.051743,230.324249 147.590714,226.364624 
	C148.057129,222.937790 150.019165,221.321136 152.944458,220.911240 
	C156.315613,220.438858 158.641953,222.044800 159.256744,226.034271 
z"/>
<path fill="#000000" opacity="1.000000" stroke="none" 
	d="
M323.758362,216.398895 
	C330.593475,232.318176 337.290283,247.883575 343.908997,263.482086 
	C346.533813,269.668091 346.115143,270.224274 339.439697,270.375763 
	C339.273163,270.379547 339.106750,270.386749 338.940216,270.389313 
	C325.248138,270.600708 328.323914,269.999542 323.996307,259.548615 
	C319.956909,249.793594 322.100708,251.278427 312.393280,251.021042 
	C307.402863,250.888733 302.397888,250.995026 297.424622,250.640823 
	C294.225250,250.412933 292.384308,251.607620 291.287720,254.475739 
	C290.160126,257.425140 288.928497,260.335144 287.721100,263.253571 
	C286.917328,265.196381 287.198730,268.232513 285.049316,268.829498 
	C281.607391,269.785522 277.990143,270.946320 274.277588,269.997925 
	C272.560974,269.559387 270.883240,268.968414 268.816956,268.332367 
	C271.131439,260.165314 274.431549,252.437286 277.543152,244.653091 
	C284.263855,227.840118 291.107910,211.076492 297.852386,194.272964 
	C299.427673,190.348297 301.695953,188.365829 306.413574,188.492233 
	C311.009155,188.615387 312.792633,190.856247 314.297577,194.531540 
	C317.258575,201.762833 320.476898,208.888763 323.758362,216.398895 
M309.297882,224.263840 
	C308.167450,222.557053 308.343475,220.058411 305.861084,218.746933 
	C302.218445,222.963501 301.583801,228.256958 300.346252,233.272003 
	C300.028290,234.560516 301.019836,235.575012 302.364380,235.532776 
	C305.702179,235.427917 309.198975,236.531189 312.338501,234.655457 
	C312.392365,230.962784 309.865448,228.300247 309.297882,224.263840 
z"/>
<path fill="#000000" opacity="1.000000" stroke="none" 
	d="
M305.497803,316.432159 
	C317.253784,325.170410 319.375122,346.823334 308.759583,359.849976 
	C303.205719,366.665283 296.197845,371.107727 287.583527,372.915649 
	C283.492767,373.774200 279.746704,373.174042 277.989166,368.854736 
	C276.424835,365.010223 278.857849,361.232452 283.768524,359.518921 
	C287.507690,358.214203 291.354980,357.418304 294.687653,354.928467 
	C303.328766,348.472778 305.238220,336.533386 298.720398,327.944000 
	C296.566376,325.105377 293.417664,323.980072 290.112885,323.377594 
	C287.945831,322.982513 285.911560,322.405121 284.040131,321.260040 
	C281.322571,319.597229 280.048798,317.193604 280.908844,314.081055 
	C281.712891,311.170959 283.965485,309.975952 286.896210,309.677216 
	C294.060455,308.946838 299.704071,312.364471 305.497803,316.432159 
z"/>
<path fill="#000000" opacity="1.000000" stroke="none" 
	d="
M313.580444,166.399963 
	C311.768097,169.846985 309.861511,172.737747 306.942078,174.835724 
	C303.605469,177.233475 299.113586,177.172211 297.061707,174.421906 
	C294.590454,171.109436 295.018524,167.091766 297.866943,164.926743 
	C304.661316,159.762375 305.110992,152.849045 303.030182,146.085007 
	C300.931915,139.264160 295.576080,134.796494 287.930084,134.018127 
	C286.782623,133.901337 285.665680,133.508652 284.525452,133.291870 
	C280.723267,132.569092 279.202148,130.006561 279.484039,126.453987 
	C279.773651,122.804108 281.944641,120.902695 285.716339,120.623573 
	C298.001251,119.714462 310.978668,128.852921 315.339630,141.617966 
	C318.198090,149.984985 318.492920,158.190689 313.580444,166.399963 
z"/>
<path fill="#000000" opacity="1.000000" stroke="none" 
	d="
M336.699768,178.072021 
	C333.131134,178.054672 330.187775,177.231659 329.125946,173.915543 
	C328.321533,171.403366 328.088074,168.723007 330.338654,166.478577 
	C332.203400,164.618912 334.040070,163.159195 336.895050,164.139069 
	C339.793579,165.133896 341.817657,166.822372 342.183228,170.058319 
	C342.501373,172.874100 342.173859,175.402023 339.332062,176.883163 
	C338.595612,177.267029 337.840546,177.615189 336.699768,178.072021 
z"/>
<path fill="#000000" opacity="1.000000" stroke="none" 
	d="
M341.847046,334.662323 
	C342.077881,336.016724 342.147339,337.000305 342.178101,337.985107 
	C342.294067,341.699738 340.096100,343.872955 336.932373,344.917053 
	C333.768402,345.961151 331.555878,344.013702 329.939758,341.541901 
	C328.054688,338.658783 328.675201,335.811310 330.819855,333.385498 
	C333.113220,330.791504 336.069092,330.910645 338.982758,332.169434 
	C339.994629,332.606598 340.779419,333.569366 341.847046,334.662323 
z"/>
<path fill="#000000" opacity="1.000000" stroke="none" 
	d="
M356.513977,270.285583 
	C354.686890,267.392120 353.646240,264.764648 356.501526,262.399658 
	C358.860565,260.445679 361.466888,258.871094 364.680054,260.392792 
	C368.118958,262.021362 368.688232,265.078247 368.220642,268.420593 
	C367.547607,273.230835 361.773987,274.303802 356.513977,270.285583 
z"/>
<path fill="#000000" opacity="1.000000" stroke="none" 
	d="
M361.228394,234.906158 
	C358.579498,233.849609 355.991852,233.316940 354.968475,230.627441 
	C353.591309,227.008316 355.064545,223.044006 358.294373,221.753906 
	C362.140930,220.217468 364.755310,222.265366 366.777008,225.100555 
	C368.680206,227.769547 367.380188,232.446487 364.433441,234.210052 
	C363.624054,234.694473 362.557343,234.748993 361.228394,234.906158 
z"/>
</svg>